<svg xmlns="http://www.w3.org/2000/svg" xmlns:xlink="http://www.w3.org/1999/xlink" width="592" zoomAndPan="magnify" viewBox="0 0 444 95.999999" height="128" preserveAspectRatio="xMidYMid meet" version="1.0"><defs><g/><clipPath id="0a203ddb1f"><path d="M 18.304688 28.75 L 51.304688 28.75 L 51.304688 36 L 18.304688 36 Z M 18.304688 28.75 " clip-rule="nonzero"/></clipPath><clipPath id="3c7ddcb16a"><path d="M 18.304688 38 L 51.304688 38 L 51.304688 56.5 L 18.304688 56.5 Z M 18.304688 38 " clip-rule="nonzero"/></clipPath></defs><g clip-path="url(#0a203ddb1f)"><path fill="#000000" d="M 51.304688 32.226562 L 51.304688 35.691406 L 18.304688 35.691406 L 18.304688 32.226562 C 18.304688 31.765625 18.394531 31.324219 18.570312 30.898438 C 18.75 30.476562 19.007812 30.101562 19.339844 29.773438 C 19.671875 29.449219 20.050781 29.199219 20.484375 29.023438 C 20.917969 28.847656 21.371094 28.757812 21.839844 28.757812 L 25.375 28.757812 L 25.375 32.226562 C 25.375 32.378906 25.40625 32.527344 25.464844 32.667969 C 25.523438 32.808594 25.609375 32.933594 25.71875 33.042969 C 25.832031 33.152344 25.957031 33.234375 26.101562 33.292969 C 26.246094 33.351562 26.398438 33.382812 26.554688 33.382812 C 26.710938 33.382812 26.859375 33.351562 27.003906 33.292969 C 27.148438 33.234375 27.277344 33.152344 27.386719 33.042969 C 27.496094 32.933594 27.582031 32.808594 27.640625 32.667969 C 27.703125 32.527344 27.730469 32.378906 27.730469 32.226562 L 27.730469 28.757812 L 41.875 28.757812 L 41.875 32.226562 C 41.875 32.378906 41.90625 32.527344 41.964844 32.667969 C 42.023438 32.808594 42.109375 32.933594 42.21875 33.042969 C 42.332031 33.152344 42.457031 33.234375 42.601562 33.292969 C 42.746094 33.351562 42.898438 33.382812 43.054688 33.382812 C 43.210938 33.382812 43.359375 33.351562 43.503906 33.292969 C 43.648438 33.234375 43.777344 33.152344 43.886719 33.042969 C 43.996094 32.933594 44.082031 32.808594 44.140625 32.667969 C 44.203125 32.527344 44.230469 32.378906 44.230469 32.226562 L 44.230469 28.757812 L 47.765625 28.757812 C 48.234375 28.757812 48.6875 28.847656 49.121094 29.023438 C 49.554688 29.199219 49.9375 29.449219 50.265625 29.773438 C 50.597656 30.101562 50.855469 30.476562 51.035156 30.898438 C 51.214844 31.324219 51.304688 31.765625 51.304688 32.226562 Z M 51.304688 32.226562 " fill-opacity="1" fill-rule="nonzero"/></g><g clip-path="url(#3c7ddcb16a)"><path fill="#000000" d="M 18.304688 38.003906 L 18.304688 53.027344 C 18.304688 53.484375 18.394531 53.929688 18.570312 54.351562 C 18.75 54.777344 19.007812 55.152344 19.339844 55.476562 C 19.671875 55.800781 20.050781 56.054688 20.484375 56.230469 C 20.917969 56.40625 21.371094 56.492188 21.839844 56.492188 L 47.765625 56.492188 C 48.234375 56.492188 48.6875 56.40625 49.121094 56.230469 C 49.554688 56.054688 49.9375 55.800781 50.265625 55.476562 C 50.597656 55.152344 50.855469 54.777344 51.035156 54.351562 C 51.214844 53.929688 51.304688 53.484375 51.304688 53.027344 L 51.304688 38.003906 Z M 26.210938 50.378906 C 26.082031 50.507812 25.929688 50.601562 25.757812 50.660156 C 25.585938 50.71875 25.40625 50.734375 25.226562 50.710938 C 25.042969 50.691406 24.875 50.628906 24.722656 50.53125 C 24.570312 50.429688 24.449219 50.304688 24.355469 50.148438 C 24.265625 49.992188 24.210938 49.828125 24.199219 49.648438 C 24.1875 49.46875 24.214844 49.296875 24.285156 49.128906 C 24.351562 48.964844 24.457031 48.820312 24.59375 48.703125 C 24.730469 48.582031 24.886719 48.5 25.0625 48.453125 C 25.238281 48.402344 25.417969 48.398438 25.597656 48.433594 C 25.777344 48.464844 25.941406 48.535156 26.085938 48.644531 C 26.234375 48.753906 26.347656 48.890625 26.429688 49.050781 C 26.511719 49.210938 26.550781 49.378906 26.554688 49.558594 C 26.546875 49.875 26.433594 50.148438 26.210938 50.378906 Z M 26.210938 45.757812 C 26.082031 45.886719 25.929688 45.976562 25.757812 46.035156 C 25.585938 46.09375 25.40625 46.113281 25.226562 46.089844 C 25.042969 46.066406 24.875 46.007812 24.722656 45.90625 C 24.570312 45.808594 24.449219 45.679688 24.355469 45.527344 C 24.265625 45.371094 24.210938 45.203125 24.199219 45.023438 C 24.1875 44.847656 24.214844 44.671875 24.285156 44.507812 C 24.351562 44.339844 24.457031 44.199219 24.59375 44.078125 C 24.730469 43.960938 24.886719 43.875 25.0625 43.828125 C 25.238281 43.78125 25.417969 43.773438 25.597656 43.808594 C 25.777344 43.84375 25.941406 43.914062 26.085938 44.023438 C 26.234375 44.132812 26.347656 44.265625 26.429688 44.425781 C 26.511719 44.585938 26.550781 44.757812 26.554688 44.9375 C 26.546875 45.253906 26.433594 45.527344 26.210938 45.757812 Z M 30.925781 50.378906 L 30.75 50.519531 C 30.683594 50.5625 30.613281 50.597656 30.535156 50.621094 L 30.324219 50.714844 L 30.089844 50.714844 C 29.90625 50.714844 29.730469 50.671875 29.566406 50.59375 C 29.40625 50.511719 29.265625 50.402344 29.15625 50.257812 C 29.046875 50.113281 28.972656 49.957031 28.9375 49.777344 C 28.902344 49.601562 28.910156 49.429688 28.957031 49.253906 C 29.007812 49.082031 29.09375 48.925781 29.214844 48.792969 C 29.335938 48.660156 29.480469 48.558594 29.648438 48.488281 C 29.820312 48.421875 29.996094 48.394531 30.179688 48.40625 C 30.359375 48.417969 30.53125 48.472656 30.691406 48.5625 C 30.847656 48.652344 30.976562 48.773438 31.078125 48.921875 C 31.179688 49.070312 31.242188 49.234375 31.265625 49.414062 C 31.289062 49.59375 31.269531 49.765625 31.210938 49.9375 C 31.148438 50.105469 31.054688 50.253906 30.925781 50.378906 Z M 31.171875 45.375 C 31.113281 45.515625 31.03125 45.644531 30.925781 45.757812 C 30.871094 45.808594 30.808594 45.855469 30.75 45.894531 C 30.683594 45.941406 30.613281 45.976562 30.535156 46 L 30.324219 46.09375 L 30.089844 46.09375 C 29.765625 46.089844 29.484375 45.976562 29.25 45.757812 C 29.148438 45.644531 29.066406 45.515625 29.003906 45.375 C 28.871094 45.082031 28.871094 44.789062 29.003906 44.5 C 29.066406 44.355469 29.148438 44.230469 29.25 44.117188 C 29.546875 43.816406 29.90625 43.703125 30.324219 43.78125 L 30.535156 43.851562 C 30.613281 43.875 30.683594 43.910156 30.75 43.957031 C 30.808594 43.996094 30.871094 44.042969 30.925781 44.09375 C 31.03125 44.207031 31.113281 44.335938 31.171875 44.476562 C 31.304688 44.769531 31.304688 45.0625 31.171875 45.351562 Z M 35.640625 50.378906 C 35.40625 50.597656 35.125 50.710938 34.804688 50.714844 C 34.476562 50.71875 34.199219 50.605469 33.964844 50.378906 C 33.742188 50.148438 33.628906 49.875 33.625 49.558594 C 33.625 49.40625 33.65625 49.261719 33.71875 49.121094 C 33.777344 48.980469 33.859375 48.851562 33.964844 48.738281 C 34.261719 48.449219 34.617188 48.347656 35.027344 48.425781 C 35.105469 48.4375 35.179688 48.460938 35.25 48.496094 C 35.324219 48.519531 35.390625 48.554688 35.453125 48.601562 C 35.519531 48.640625 35.582031 48.6875 35.640625 48.738281 C 35.746094 48.851562 35.828125 48.980469 35.886719 49.121094 C 35.949219 49.261719 35.980469 49.40625 35.980469 49.558594 C 35.976562 49.875 35.863281 50.148438 35.640625 50.378906 Z M 35.640625 45.757812 C 35.511719 45.886719 35.359375 45.976562 35.1875 46.035156 C 35.011719 46.09375 34.835938 46.113281 34.652344 46.089844 C 34.472656 46.066406 34.304688 46.007812 34.152344 45.90625 C 34 45.808594 33.878906 45.679688 33.785156 45.527344 C 33.691406 45.371094 33.640625 45.203125 33.628906 45.023438 C 33.613281 44.847656 33.644531 44.671875 33.710938 44.507812 C 33.78125 44.339844 33.882812 44.199219 34.019531 44.078125 C 34.160156 43.960938 34.316406 43.875 34.492188 43.828125 C 34.667969 43.78125 34.847656 43.773438 35.027344 43.808594 C 35.207031 43.84375 35.371094 43.914062 35.515625 44.023438 C 35.660156 44.132812 35.773438 44.265625 35.855469 44.425781 C 35.9375 44.585938 35.980469 44.757812 35.980469 44.9375 C 35.976562 45.253906 35.863281 45.527344 35.640625 45.757812 Z M 40.601562 50 C 40.542969 50.140625 40.460938 50.269531 40.355469 50.378906 L 40.164062 50.519531 C 40.105469 50.566406 40.039062 50.597656 39.964844 50.621094 C 39.894531 50.65625 39.820312 50.679688 39.742188 50.691406 L 39.515625 50.714844 C 39.195312 50.710938 38.914062 50.597656 38.679688 50.378906 C 38.570312 50.269531 38.488281 50.140625 38.433594 50 C 38.367188 49.859375 38.335938 49.714844 38.339844 49.558594 C 38.34375 49.242188 38.457031 48.96875 38.679688 48.738281 C 38.976562 48.449219 39.332031 48.347656 39.742188 48.425781 C 39.820312 48.4375 39.894531 48.460938 39.964844 48.496094 C 40.039062 48.519531 40.105469 48.554688 40.164062 48.601562 L 40.355469 48.738281 C 40.578125 48.96875 40.691406 49.242188 40.695312 49.558594 C 40.695312 49.710938 40.664062 49.859375 40.601562 50 Z M 40.355469 45.757812 L 40.164062 45.894531 C 40.105469 45.941406 40.039062 45.976562 39.964844 46 C 39.894531 46.035156 39.820312 46.058594 39.742188 46.070312 L 39.515625 46.09375 C 39.195312 46.089844 38.914062 45.976562 38.679688 45.757812 C 38.449219 45.53125 38.335938 45.257812 38.339844 44.9375 C 38.34375 44.621094 38.457031 44.347656 38.679688 44.117188 C 38.976562 43.828125 39.332031 43.722656 39.742188 43.804688 C 39.820312 43.816406 39.894531 43.839844 39.964844 43.875 C 40.039062 43.898438 40.105469 43.933594 40.164062 43.976562 L 40.355469 44.117188 C 40.578125 44.347656 40.691406 44.621094 40.695312 44.9375 C 40.699219 45.257812 40.582031 45.53125 40.355469 45.757812 Z M 45.066406 50.378906 C 44.953125 50.484375 44.824219 50.5625 44.679688 50.621094 C 44.535156 50.683594 44.386719 50.714844 44.230469 50.714844 L 43.996094 50.714844 L 43.785156 50.644531 C 43.707031 50.621094 43.636719 50.585938 43.570312 50.542969 L 43.394531 50.402344 C 43.164062 50.167969 43.050781 49.886719 43.054688 49.558594 C 43.054688 49.40625 43.085938 49.261719 43.148438 49.121094 C 43.207031 48.980469 43.289062 48.851562 43.394531 48.738281 C 43.449219 48.6875 43.507812 48.644531 43.570312 48.601562 C 43.636719 48.554688 43.707031 48.523438 43.785156 48.496094 L 43.996094 48.402344 C 44.230469 48.359375 44.457031 48.382812 44.679688 48.472656 C 44.824219 48.53125 44.953125 48.613281 45.066406 48.714844 C 45.175781 48.828125 45.257812 48.953125 45.316406 49.097656 C 45.378906 49.246094 45.410156 49.398438 45.410156 49.558594 C 45.40625 49.875 45.292969 50.148438 45.066406 50.378906 Z M 45.316406 45.375 C 45.257812 45.519531 45.175781 45.648438 45.066406 45.757812 C 44.953125 45.859375 44.824219 45.941406 44.679688 46 C 44.539062 46.066406 44.386719 46.097656 44.230469 46.09375 C 43.90625 46.09375 43.625 45.984375 43.394531 45.757812 C 43.289062 45.644531 43.207031 45.515625 43.148438 45.375 C 43.085938 45.234375 43.054688 45.089844 43.054688 44.9375 C 43.058594 44.621094 43.171875 44.347656 43.394531 44.117188 L 43.570312 43.976562 C 43.636719 43.933594 43.707031 43.898438 43.785156 43.875 L 43.996094 43.78125 C 44.230469 43.738281 44.457031 43.761719 44.679688 43.851562 C 44.824219 43.910156 44.953125 43.992188 45.066406 44.09375 C 45.296875 44.328125 45.410156 44.609375 45.410156 44.9375 C 45.410156 45.089844 45.375 45.234375 45.316406 45.375 Z M 45.316406 45.375 " fill-opacity="1" fill-rule="nonzero"/></g><g fill="#000000" fill-opacity="1"><g transform="translate(67.686599, 55.464335)"><g><path d="M 7 -23.6875 L 7 -13.453125 L 20.484375 -13.453125 L 20.484375 -11.0625 L 7 -11.0625 L 7 0 L 4.25 0 L 4.25 -26.078125 L 22.125 -26.078125 L 22.125 -23.6875 Z M 7 -23.6875 "/></g></g></g><g fill="#000000" fill-opacity="1"><g transform="translate(91.263842, 55.464335)"><g><path d="M 4.25 -26.078125 L 7 -26.078125 L 7 0 L 4.25 0 Z M 4.25 -26.078125 "/></g></g></g><g fill="#000000" fill-opacity="1"><g transform="translate(102.512391, 55.464335)"><g><path d="M 11.4375 0.21875 C 9.5 0.21875 7.640625 -0.0859375 5.859375 -0.703125 C 4.085938 -1.328125 2.71875 -2.148438 1.75 -3.171875 L 2.828125 -5.296875 C 3.773438 -4.347656 5.03125 -3.582031 6.59375 -3 C 8.15625 -2.414062 9.769531 -2.125 11.4375 -2.125 C 13.769531 -2.125 15.519531 -2.550781 16.6875 -3.40625 C 17.851562 -4.257812 18.4375 -5.375 18.4375 -6.75 C 18.4375 -7.789062 18.117188 -8.617188 17.484375 -9.234375 C 16.847656 -9.859375 16.070312 -10.335938 15.15625 -10.671875 C 14.238281 -11.003906 12.960938 -11.367188 11.328125 -11.765625 C 9.359375 -12.265625 7.789062 -12.742188 6.625 -13.203125 C 5.457031 -13.660156 4.457031 -14.359375 3.625 -15.296875 C 2.800781 -16.242188 2.390625 -17.523438 2.390625 -19.140625 C 2.390625 -20.460938 2.734375 -21.660156 3.421875 -22.734375 C 4.117188 -23.816406 5.1875 -24.679688 6.625 -25.328125 C 8.070312 -25.972656 9.863281 -26.296875 12 -26.296875 C 13.488281 -26.296875 14.945312 -26.085938 16.375 -25.671875 C 17.800781 -25.265625 19.035156 -24.703125 20.078125 -23.984375 L 19.140625 -21.796875 C 18.046875 -22.515625 16.878906 -23.050781 15.640625 -23.40625 C 14.398438 -23.769531 13.1875 -23.953125 12 -23.953125 C 9.707031 -23.953125 7.984375 -23.507812 6.828125 -22.625 C 5.679688 -21.75 5.109375 -20.613281 5.109375 -19.21875 C 5.109375 -18.175781 5.421875 -17.335938 6.046875 -16.703125 C 6.679688 -16.066406 7.476562 -15.582031 8.4375 -15.25 C 9.394531 -14.914062 10.679688 -14.550781 12.296875 -14.15625 C 14.203125 -13.6875 15.742188 -13.21875 16.921875 -12.75 C 18.109375 -12.289062 19.109375 -11.597656 19.921875 -10.671875 C 20.742188 -9.742188 21.15625 -8.484375 21.15625 -6.890625 C 21.15625 -5.578125 20.800781 -4.378906 20.09375 -3.296875 C 19.382812 -2.210938 18.296875 -1.351562 16.828125 -0.71875 C 15.367188 -0.09375 13.570312 0.21875 11.4375 0.21875 Z M 11.4375 0.21875 "/></g></g></g><g fill="#000000" fill-opacity="1"><g transform="translate(125.419194, 55.464335)"><g><path d="M 15.578125 0.21875 C 12.992188 0.21875 10.660156 -0.347656 8.578125 -1.484375 C 6.503906 -2.628906 4.878906 -4.210938 3.703125 -6.234375 C 2.523438 -8.265625 1.9375 -10.53125 1.9375 -13.03125 C 1.9375 -15.539062 2.523438 -17.804688 3.703125 -19.828125 C 4.878906 -21.859375 6.507812 -23.441406 8.59375 -24.578125 C 10.6875 -25.722656 13.023438 -26.296875 15.609375 -26.296875 C 17.546875 -26.296875 19.332031 -25.972656 20.96875 -25.328125 C 22.613281 -24.679688 24.003906 -23.738281 25.140625 -22.5 L 23.390625 -20.75 C 21.359375 -22.8125 18.789062 -23.84375 15.6875 -23.84375 C 13.625 -23.84375 11.75 -23.367188 10.0625 -22.421875 C 8.375 -21.484375 7.050781 -20.191406 6.09375 -18.546875 C 5.132812 -16.910156 4.65625 -15.070312 4.65625 -13.03125 C 4.65625 -11 5.132812 -9.160156 6.09375 -7.515625 C 7.050781 -5.878906 8.375 -4.585938 10.0625 -3.640625 C 11.75 -2.703125 13.625 -2.234375 15.6875 -2.234375 C 18.8125 -2.234375 21.378906 -3.273438 23.390625 -5.359375 L 25.140625 -3.609375 C 24.003906 -2.367188 22.609375 -1.421875 20.953125 -0.765625 C 19.296875 -0.109375 17.503906 0.21875 15.578125 0.21875 Z M 15.578125 0.21875 "/></g></g></g><g fill="#000000" fill-opacity="1"><g transform="translate(152.199674, 55.464335)"><g><path d="M 20.59375 -6.96875 L 6.078125 -6.96875 L 2.9375 0 L 0.078125 0 L 12 -26.078125 L 14.71875 -26.078125 L 26.640625 0 L 23.734375 0 Z M 19.59375 -9.203125 L 13.328125 -23.203125 L 7.078125 -9.203125 Z M 19.59375 -9.203125 "/></g></g></g><g fill="#000000" fill-opacity="1"><g transform="translate(178.905661, 55.464335)"><g><path d="M 4.25 -26.078125 L 7 -26.078125 L 7 -2.390625 L 21.609375 -2.390625 L 21.609375 0 L 4.25 0 Z M 4.25 -26.078125 "/></g></g></g><g fill="#000000" fill-opacity="1"><g transform="translate(200.844051, 55.464335)"><g/></g></g><g fill="#000000" fill-opacity="1"><g transform="translate(210.602722, 55.464335)"><g><path d="M 15.578125 0.21875 C 12.992188 0.21875 10.660156 -0.347656 8.578125 -1.484375 C 6.503906 -2.628906 4.878906 -4.210938 3.703125 -6.234375 C 2.523438 -8.265625 1.9375 -10.53125 1.9375 -13.03125 C 1.9375 -15.539062 2.523438 -17.804688 3.703125 -19.828125 C 4.878906 -21.859375 6.507812 -23.441406 8.59375 -24.578125 C 10.6875 -25.722656 13.023438 -26.296875 15.609375 -26.296875 C 17.546875 -26.296875 19.332031 -25.972656 20.96875 -25.328125 C 22.613281 -24.679688 24.003906 -23.738281 25.140625 -22.5 L 23.390625 -20.75 C 21.359375 -22.8125 18.789062 -23.84375 15.6875 -23.84375 C 13.625 -23.84375 11.75 -23.367188 10.0625 -22.421875 C 8.375 -21.484375 7.050781 -20.191406 6.09375 -18.546875 C 5.132812 -16.910156 4.65625 -15.070312 4.65625 -13.03125 C 4.65625 -11 5.132812 -9.160156 6.09375 -7.515625 C 7.050781 -5.878906 8.375 -4.585938 10.0625 -3.640625 C 11.75 -2.703125 13.625 -2.234375 15.6875 -2.234375 C 18.8125 -2.234375 21.378906 -3.273438 23.390625 -5.359375 L 25.140625 -3.609375 C 24.003906 -2.367188 22.609375 -1.421875 20.953125 -0.765625 C 19.296875 -0.109375 17.503906 0.21875 15.578125 0.21875 Z M 15.578125 0.21875 "/></g></g></g><g fill="#000000" fill-opacity="1"><g transform="translate(237.383201, 55.464335)"><g><path d="M 20.59375 -6.96875 L 6.078125 -6.96875 L 2.9375 0 L 0.078125 0 L 12 -26.078125 L 14.71875 -26.078125 L 26.640625 0 L 23.734375 0 Z M 19.59375 -9.203125 L 13.328125 -23.203125 L 7.078125 -9.203125 Z M 19.59375 -9.203125 "/></g></g></g><g fill="#000000" fill-opacity="1"><g transform="translate(264.089188, 55.464335)"><g><path d="M 4.25 -26.078125 L 7 -26.078125 L 7 -2.390625 L 21.609375 -2.390625 L 21.609375 0 L 4.25 0 Z M 4.25 -26.078125 "/></g></g></g><g fill="#000000" fill-opacity="1"><g transform="translate(286.027579, 55.464335)"><g><path d="M 22.6875 -2.390625 L 22.6875 0 L 4.25 0 L 4.25 -26.078125 L 22.125 -26.078125 L 22.125 -23.6875 L 7 -23.6875 L 7 -14.421875 L 20.484375 -14.421875 L 20.484375 -12.0625 L 7 -12.0625 L 7 -2.390625 Z M 22.6875 -2.390625 "/></g></g></g><g fill="#000000" fill-opacity="1"><g transform="translate(310.945713, 55.464335)"><g><path d="M 26.03125 -26.078125 L 26.03125 0 L 23.765625 0 L 7 -21.15625 L 7 0 L 4.25 0 L 4.25 -26.078125 L 6.515625 -26.078125 L 23.3125 -4.921875 L 23.3125 -26.078125 Z M 26.03125 -26.078125 "/></g></g></g><g fill="#000000" fill-opacity="1"><g transform="translate(341.227389, 55.464335)"><g><path d="M 4.25 -26.078125 L 14.859375 -26.078125 C 17.617188 -26.078125 20.050781 -25.523438 22.15625 -24.421875 C 24.269531 -23.316406 25.910156 -21.773438 27.078125 -19.796875 C 28.242188 -17.828125 28.828125 -15.570312 28.828125 -13.03125 C 28.828125 -10.5 28.242188 -8.242188 27.078125 -6.265625 C 25.910156 -4.296875 24.269531 -2.757812 22.15625 -1.65625 C 20.050781 -0.550781 17.617188 0 14.859375 0 L 4.25 0 Z M 14.71875 -2.390625 C 17 -2.390625 18.992188 -2.84375 20.703125 -3.75 C 22.421875 -4.65625 23.75 -5.90625 24.6875 -7.5 C 25.632812 -9.101562 26.109375 -10.945312 26.109375 -13.03125 C 26.109375 -15.125 25.632812 -16.96875 24.6875 -18.5625 C 23.75 -20.164062 22.421875 -21.421875 20.703125 -22.328125 C 18.992188 -23.234375 17 -23.6875 14.71875 -23.6875 L 7 -23.6875 L 7 -2.390625 Z M 14.71875 -2.390625 "/></g></g></g><g fill="#000000" fill-opacity="1"><g transform="translate(371.993279, 55.464335)"><g><path d="M 20.59375 -6.96875 L 6.078125 -6.96875 L 2.9375 0 L 0.078125 0 L 12 -26.078125 L 14.71875 -26.078125 L 26.640625 0 L 23.734375 0 Z M 19.59375 -9.203125 L 13.328125 -23.203125 L 7.078125 -9.203125 Z M 19.59375 -9.203125 "/></g></g></g><g fill="#000000" fill-opacity="1"><g transform="translate(398.699252, 55.464335)"><g><path d="M 22.046875 0 L 16.09375 -8.375 C 15.425781 -8.300781 14.726562 -8.265625 14 -8.265625 L 7 -8.265625 L 7 0 L 4.25 0 L 4.25 -26.078125 L 14 -26.078125 C 17.332031 -26.078125 19.941406 -25.28125 21.828125 -23.6875 C 23.710938 -22.101562 24.65625 -19.921875 24.65625 -17.140625 C 24.65625 -15.097656 24.140625 -13.375 23.109375 -11.96875 C 22.078125 -10.570312 20.609375 -9.5625 18.703125 -8.9375 L 25.0625 0 Z M 13.9375 -10.609375 C 16.519531 -10.609375 18.492188 -11.179688 19.859375 -12.328125 C 21.222656 -13.472656 21.90625 -15.078125 21.90625 -17.140625 C 21.90625 -19.242188 21.222656 -20.859375 19.859375 -21.984375 C 18.492188 -23.117188 16.519531 -23.6875 13.9375 -23.6875 L 7 -23.6875 L 7 -10.609375 Z M 13.9375 -10.609375 "/></g></g></g></svg>